<svg width="1024" height="512" viewBox="0 0 1024 512" fill="none" xmlns="http://www.w3.org/2000/svg">
<g clip-path="url(#clip0_14_405)">
<rect width="1024" height="512" fill="#100F1B"/>
<g filter="url(#filter0_f_14_405)">
<rect x="-56" y="196.034" width="589.594" height="292.172" transform="rotate(-23.1755 -56 196.034)" fill="#8379C1"/>
<rect x="336.968" y="115.567" width="590.403" height="310.897" transform="rotate(8.68914 336.968 115.567)" fill="#A25E5E"/>
<path fill-rule="evenodd" clip-rule="evenodd" d="M565.877 150.55L601 232.595L299.348 361.731L336.968 115.567L565.877 150.55Z" fill="#DA8ED2"/>
</g>
<g filter="url(#filter1_dii_14_405)">
<path d="M133 88C133 81.3726 138.373 76 145 76H341C347.627 76 353 81.3726 353 88V436H133V88Z" stroke="#ECFCFF" stroke-width="12" shape-rendering="crispEdges"/>
</g>
<g filter="url(#filter2_dii_14_405)">
<path fill-rule="evenodd" clip-rule="evenodd" d="M243 409C291.601 409 331 369.601 331 321C331 272.399 291.601 233 243 233C194.399 233 155 272.399 155 321C155 369.601 194.399 409 243 409ZM243 372C271.167 372 294 349.167 294 321C294 292.833 271.167 270 243 270C214.833 270 192 292.833 192 321C192 349.167 214.833 372 243 372Z" fill="#ECFCFF"/>
<circle cx="243" cy="321" r="32" fill="#ECFCFF"/>
<path fill-rule="evenodd" clip-rule="evenodd" d="M243 259C282.765 259 315 226.765 315 187C315 147.235 282.765 115 243 115C203.235 115 171 147.235 171 187C171 226.765 203.235 259 243 259ZM243 227C265.091 227 283 209.091 283 187C283 164.909 265.091 147 243 147C220.909 147 203 164.909 203 187C203 209.091 220.909 227 243 227Z" fill="#ECFCFF"/>
<circle cx="243" cy="187" r="24" fill="#ECFCFF"/>
<circle cx="284" cy="396" r="9" fill="#ECFCFF" stroke="#100F1B" stroke-width="2"/>
<circle cx="203" cy="396" r="9" fill="#ECFCFF" stroke="#100F1B" stroke-width="2"/>
<circle cx="163" cy="280" r="9" transform="rotate(-90 163 280)" fill="#ECFCFF" stroke="#100F1B" stroke-width="2"/>
<circle cx="163" cy="361" r="9" transform="rotate(-90 163 361)" fill="#ECFCFF" stroke="#100F1B" stroke-width="2"/>
<circle cx="323" cy="280" r="9" transform="rotate(-90 323 280)" fill="#ECFCFF" stroke="#100F1B" stroke-width="2"/>
<circle cx="323" cy="361" r="9" transform="rotate(-90 323 361)" fill="#ECFCFF" stroke="#100F1B" stroke-width="2"/>
<circle cx="284" cy="243" r="9" fill="#ECFCFF" stroke="#100F1B" stroke-width="2"/>
<circle cx="203" cy="243" r="9" fill="#ECFCFF" stroke="#100F1B" stroke-width="2"/>
</g>
<g filter="url(#filter3_dii_14_405)">
<path d="M492.912 224L459.376 134.4H479.856L514.672 224H492.912ZM423.024 224L457.84 134.4H478.32L444.784 224H423.024ZM439.408 206.976V188.8H498.416V206.976H439.408ZM549.798 225.536C542.203 225.536 536.529 223.744 532.774 220.16C529.105 216.491 527.27 211.285 527.27 204.544V140.032H547.238V199.552C547.238 202.112 547.707 203.989 548.646 205.184C549.585 206.379 551.035 206.976 552.998 206.976C553.766 206.976 554.662 206.805 555.686 206.464C556.71 206.037 557.649 205.525 558.502 204.928L565.414 219.52C563.366 221.227 560.891 222.677 557.99 223.872C555.174 224.981 552.443 225.536 549.798 225.536ZM517.286 176.768V160H561.83V176.768H517.286ZM604.754 225.536C598.013 225.536 592.082 224.128 586.962 221.312C581.842 218.411 577.789 214.443 574.802 209.408C571.901 204.373 570.45 198.571 570.45 192C570.45 185.429 571.858 179.627 574.674 174.592C577.575 169.557 581.586 165.632 586.706 162.816C591.911 159.915 597.799 158.464 604.37 158.464C611.111 158.464 617.042 159.915 622.162 162.816C627.367 165.632 631.378 169.557 634.194 174.592C637.095 179.627 638.546 185.429 638.546 192C638.546 198.571 637.095 204.373 634.194 209.408C631.378 214.443 627.41 218.411 622.29 221.312C617.17 224.128 611.325 225.536 604.754 225.536ZM604.754 207.104C607.314 207.104 609.575 206.464 611.538 205.184C613.586 203.904 615.165 202.155 616.274 199.936C617.469 197.632 618.066 194.987 618.066 192C618.066 189.013 617.469 186.411 616.274 184.192C615.165 181.888 613.586 180.096 611.538 178.816C609.49 177.536 607.143 176.896 604.498 176.896C601.853 176.896 599.506 177.536 597.458 178.816C595.41 180.096 593.789 181.888 592.594 184.192C591.485 186.411 590.93 189.013 590.93 192C590.93 194.987 591.485 197.632 592.594 199.936C593.789 202.155 595.41 203.904 597.458 205.184C599.591 206.464 602.023 207.104 604.754 207.104ZM648.278 224V160H667.094L667.862 168.064C669.91 164.907 672.427 162.517 675.414 160.896C678.486 159.275 681.857 158.464 685.526 158.464C690.817 158.464 695.169 159.573 698.582 161.792C702.081 163.925 704.641 167.211 706.262 171.648C708.225 167.381 710.913 164.139 714.326 161.92C717.739 159.616 721.579 158.464 725.846 158.464C733.526 158.464 739.286 160.811 743.126 165.504C747.051 170.197 748.971 177.493 748.886 187.392V224H728.918V191.232C728.918 187.819 728.534 185.131 727.766 183.168C727.083 181.12 726.059 179.627 724.694 178.688C723.329 177.749 721.707 177.237 719.83 177.152C716.161 177.067 713.345 178.133 711.382 180.352C709.505 182.485 708.566 185.771 708.566 190.208V224H688.598V191.232C688.598 187.819 688.214 185.131 687.446 183.168C686.763 181.12 685.739 179.627 684.374 178.688C683.009 177.749 681.387 177.237 679.51 177.152C675.841 177.067 673.025 178.133 671.062 180.352C669.185 182.485 668.246 185.771 668.246 190.208V224H648.278ZM762.18 224V160H782.148V224H762.18ZM772.164 151.808C769.177 151.808 766.532 150.699 764.228 148.48C762.009 146.176 760.9 143.531 760.9 140.544C760.9 137.387 762.009 134.741 764.228 132.608C766.532 130.389 769.177 129.28 772.164 129.28C775.236 129.28 777.881 130.389 780.1 132.608C782.319 134.741 783.428 137.387 783.428 140.544C783.428 143.531 782.319 146.176 780.1 148.48C777.881 150.699 775.236 151.808 772.164 151.808ZM828.275 225.536C821.448 225.536 815.347 224.128 809.971 221.312C804.68 218.411 800.542 214.443 797.555 209.408C794.568 204.288 793.075 198.485 793.075 192C793.075 185.429 794.568 179.627 797.555 174.592C800.542 169.557 804.638 165.632 809.843 162.816C815.134 159.915 821.192 158.464 828.019 158.464C834.59 158.464 840.606 160.128 846.067 163.456C851.528 166.784 855.454 171.605 857.843 177.92L838.899 184.32C837.96 182.272 836.382 180.608 834.163 179.328C832.03 177.963 829.64 177.28 826.995 177.28C824.35 177.28 822.003 177.92 819.955 179.2C817.992 180.395 816.414 182.101 815.219 184.32C814.11 186.539 813.555 189.099 813.555 192C813.555 194.901 814.11 197.461 815.219 199.68C816.414 201.813 818.035 203.52 820.083 204.8C822.216 206.08 824.606 206.72 827.251 206.72C829.896 206.72 832.286 206.037 834.419 204.672C836.552 203.307 838.131 201.515 839.155 199.296L858.099 205.696C855.624 212.096 851.656 217.003 846.195 220.416C840.819 223.829 834.846 225.536 828.275 225.536ZM461.424 379.536C457.072 379.536 452.891 378.981 448.88 377.872C444.955 376.677 441.371 375.099 438.128 373.136C434.971 371.088 432.368 368.827 430.32 366.352C428.272 363.792 426.992 361.061 426.48 358.16L446.832 352.4C447.771 354.875 449.392 357.051 451.696 358.928C454.085 360.72 457.072 361.659 460.656 361.744C464.155 361.829 467.056 361.019 469.36 359.312C471.749 357.605 472.944 355.387 472.944 352.656C472.944 350.523 472.091 348.645 470.384 347.024C468.763 345.403 466.416 344.165 463.344 343.312L450.672 340.112C446.235 339.003 442.352 337.253 439.024 334.864C435.781 332.475 433.221 329.573 431.344 326.16C429.552 322.661 428.656 318.693 428.656 314.256C428.656 305.637 431.515 298.939 437.232 294.16C442.949 289.296 451.013 286.864 461.424 286.864C467.141 286.864 472.133 287.675 476.4 289.296C480.667 290.832 484.293 293.136 487.28 296.208C490.352 299.28 492.784 303.12 494.576 307.728L474.352 313.744C473.669 311.44 472.176 309.349 469.872 307.472C467.653 305.595 464.752 304.656 461.168 304.656C457.584 304.656 454.768 305.467 452.72 307.088C450.757 308.709 449.776 311.056 449.776 314.128C449.776 316.261 450.587 318.053 452.208 319.504C453.829 320.869 456.048 321.893 458.864 322.576L471.536 325.776C478.789 327.568 484.421 330.939 488.432 335.888C492.528 340.752 494.576 346.299 494.576 352.528C494.576 358.16 493.253 362.981 490.608 366.992C488.048 371.003 484.293 374.117 479.344 376.336C474.395 378.469 468.421 379.536 461.424 379.536ZM533.173 379.536C525.578 379.536 519.904 377.744 516.149 374.16C512.48 370.491 510.645 365.285 510.645 358.544V294.032H530.613V353.552C530.613 356.112 531.082 357.989 532.021 359.184C532.96 360.379 534.41 360.976 536.373 360.976C537.141 360.976 538.037 360.805 539.061 360.464C540.085 360.037 541.024 359.525 541.877 358.928L548.789 373.52C546.741 375.227 544.266 376.677 541.365 377.872C538.549 378.981 535.818 379.536 533.173 379.536ZM500.661 330.768V314H545.205V330.768H500.661ZM600.125 378L598.973 366.224V314H618.941V378H600.125ZM557.757 346.768V314H577.725V346.768H557.757ZM577.725 346.768C577.725 350.096 578.109 352.784 578.877 354.832C579.645 356.88 580.754 358.373 582.205 359.312C583.656 360.251 585.362 360.763 587.325 360.848C591.165 360.848 594.066 359.781 596.029 357.648C597.992 355.429 598.973 352.144 598.973 347.792H604.989C604.989 354.533 603.965 360.293 601.917 365.072C599.869 369.765 597.053 373.349 593.469 375.824C589.97 378.299 585.874 379.536 581.181 379.536C576.061 379.536 571.752 378.512 568.253 376.464C564.754 374.331 562.109 371.131 560.317 366.864C558.61 362.597 557.757 357.136 557.757 350.48V346.768H577.725ZM676.7 378L675.804 366.096V288.4H695.772V378H676.7ZM657.628 379.536C651.655 379.536 646.492 378.213 642.14 375.568C637.873 372.837 634.545 368.955 632.156 363.92C629.852 358.885 628.7 352.912 628.7 346C628.7 339.003 629.852 333.029 632.156 328.08C634.545 323.045 637.873 319.205 642.14 316.56C646.492 313.829 651.655 312.464 657.628 312.464C662.919 312.464 667.356 313.829 670.94 316.56C674.609 319.205 677.34 323.045 679.132 328.08C680.924 333.029 681.82 339.003 681.82 346C681.82 352.912 680.924 358.885 679.132 363.92C677.34 368.955 674.609 372.837 670.94 375.568C667.356 378.213 662.919 379.536 657.628 379.536ZM662.876 361.104C665.351 361.104 667.569 360.464 669.532 359.184C671.495 357.904 673.031 356.155 674.14 353.936C675.249 351.632 675.804 348.987 675.804 346C675.804 343.013 675.249 340.411 674.14 338.192C673.031 335.888 671.495 334.096 669.532 332.816C667.569 331.536 665.308 330.896 662.748 330.896C660.188 330.896 657.927 331.536 655.964 332.816C654.001 334.096 652.423 335.888 651.228 338.192C650.119 340.411 649.521 343.013 649.436 346C649.521 348.987 650.119 351.632 651.228 353.936C652.423 356.155 654.001 357.904 655.964 359.184C658.012 360.464 660.316 361.104 662.876 361.104ZM709.93 378V314H729.898V378H709.93ZM719.914 305.808C716.927 305.808 714.282 304.699 711.978 302.48C709.759 300.176 708.65 297.531 708.65 294.544C708.65 291.387 709.759 288.741 711.978 286.608C714.282 284.389 716.927 283.28 719.914 283.28C722.986 283.28 725.631 284.389 727.85 286.608C730.069 288.741 731.178 291.387 731.178 294.544C731.178 297.531 730.069 300.176 727.85 302.48C725.631 304.699 722.986 305.808 719.914 305.808ZM775.129 379.536C768.388 379.536 762.457 378.128 757.337 375.312C752.217 372.411 748.164 368.443 745.177 363.408C742.276 358.373 740.825 352.571 740.825 346C740.825 339.429 742.233 333.627 745.049 328.592C747.95 323.557 751.961 319.632 757.081 316.816C762.286 313.915 768.174 312.464 774.745 312.464C781.486 312.464 787.417 313.915 792.537 316.816C797.742 319.632 801.753 323.557 804.569 328.592C807.47 333.627 808.921 339.429 808.921 346C808.921 352.571 807.47 358.373 804.569 363.408C801.753 368.443 797.785 372.411 792.665 375.312C787.545 378.128 781.7 379.536 775.129 379.536ZM775.129 361.104C777.689 361.104 779.95 360.464 781.913 359.184C783.961 357.904 785.54 356.155 786.649 353.936C787.844 351.632 788.441 348.987 788.441 346C788.441 343.013 787.844 340.411 786.649 338.192C785.54 335.888 783.961 334.096 781.913 332.816C779.865 331.536 777.518 330.896 774.873 330.896C772.228 330.896 769.881 331.536 767.833 332.816C765.785 334.096 764.164 335.888 762.969 338.192C761.86 340.411 761.305 343.013 761.305 346C761.305 348.987 761.86 351.632 762.969 353.936C764.164 356.155 765.785 357.904 767.833 359.184C769.966 360.464 772.398 361.104 775.129 361.104Z" fill="#ECFCFF"/>
</g>
</g>
<defs>
<filter id="filter0_f_14_405" x="-184" y="-164" width="1232.59" height="804.089" filterUnits="userSpaceOnUse" color-interpolation-filters="sRGB">
<feFlood flood-opacity="0" result="BackgroundImageFix"/>
<feBlend mode="normal" in="SourceGraphic" in2="BackgroundImageFix" result="shape"/>
<feGaussianBlur stdDeviation="64" result="effect1_foregroundBlur_14_405"/>
</filter>
<filter id="filter1_dii_14_405" x="126" y="69" width="234" height="374" filterUnits="userSpaceOnUse" color-interpolation-filters="sRGB">
<feFlood flood-opacity="0" result="BackgroundImageFix"/>
<feColorMatrix in="SourceAlpha" type="matrix" values="0 0 0 0 0 0 0 0 0 0 0 0 0 0 0 0 0 0 127 0" result="hardAlpha"/>
<feOffset dy="1"/>
<feComposite in2="hardAlpha" operator="out"/>
<feColorMatrix type="matrix" values="0 0 0 0 0 0 0 0 0 0 0 0 0 0 0 0 0 0 0.25 0"/>
<feBlend mode="normal" in2="BackgroundImageFix" result="effect1_dropShadow_14_405"/>
<feBlend mode="normal" in="SourceGraphic" in2="effect1_dropShadow_14_405" result="shape"/>
<feColorMatrix in="SourceAlpha" type="matrix" values="0 0 0 0 0 0 0 0 0 0 0 0 0 0 0 0 0 0 127 0" result="hardAlpha"/>
<feOffset dx="1" dy="1"/>
<feGaussianBlur stdDeviation="2"/>
<feComposite in2="hardAlpha" operator="arithmetic" k2="-1" k3="1"/>
<feColorMatrix type="matrix" values="0 0 0 0 0.995 0 0 0 0 0.75 0 0 0 0 1 0 0 0 0.25 0"/>
<feBlend mode="normal" in2="shape" result="effect2_innerShadow_14_405"/>
<feColorMatrix in="SourceAlpha" type="matrix" values="0 0 0 0 0 0 0 0 0 0 0 0 0 0 0 0 0 0 127 0" result="hardAlpha"/>
<feOffset dx="-1" dy="-1"/>
<feGaussianBlur stdDeviation="2"/>
<feComposite in2="hardAlpha" operator="arithmetic" k2="-1" k3="1"/>
<feColorMatrix type="matrix" values="0 0 0 0 0 0 0 0 0 0 0 0 0 0 0 0 0 0 0.25 0"/>
<feBlend mode="normal" in2="effect2_innerShadow_14_405" result="effect3_innerShadow_14_405"/>
</filter>
<filter id="filter2_dii_14_405" x="152" y="114" width="182" height="296" filterUnits="userSpaceOnUse" color-interpolation-filters="sRGB">
<feFlood flood-opacity="0" result="BackgroundImageFix"/>
<feColorMatrix in="SourceAlpha" type="matrix" values="0 0 0 0 0 0 0 0 0 0 0 0 0 0 0 0 0 0 127 0" result="hardAlpha"/>
<feOffset dy="1"/>
<feComposite in2="hardAlpha" operator="out"/>
<feColorMatrix type="matrix" values="0 0 0 0 0 0 0 0 0 0 0 0 0 0 0 0 0 0 0.25 0"/>
<feBlend mode="normal" in2="BackgroundImageFix" result="effect1_dropShadow_14_405"/>
<feBlend mode="normal" in="SourceGraphic" in2="effect1_dropShadow_14_405" result="shape"/>
<feColorMatrix in="SourceAlpha" type="matrix" values="0 0 0 0 0 0 0 0 0 0 0 0 0 0 0 0 0 0 127 0" result="hardAlpha"/>
<feOffset dx="1" dy="1"/>
<feGaussianBlur stdDeviation="2"/>
<feComposite in2="hardAlpha" operator="arithmetic" k2="-1" k3="1"/>
<feColorMatrix type="matrix" values="0 0 0 0 0.995 0 0 0 0 0.75 0 0 0 0 1 0 0 0 0.25 0"/>
<feBlend mode="normal" in2="shape" result="effect2_innerShadow_14_405"/>
<feColorMatrix in="SourceAlpha" type="matrix" values="0 0 0 0 0 0 0 0 0 0 0 0 0 0 0 0 0 0 127 0" result="hardAlpha"/>
<feOffset dx="-1" dy="-1"/>
<feGaussianBlur stdDeviation="2"/>
<feComposite in2="hardAlpha" operator="arithmetic" k2="-1" k3="1"/>
<feColorMatrix type="matrix" values="0 0 0 0 0 0 0 0 0 0 0 0 0 0 0 0 0 0 0.25 0"/>
<feBlend mode="normal" in2="effect2_innerShadow_14_405" result="effect3_innerShadow_14_405"/>
</filter>
<filter id="filter3_dii_14_405" x="422.024" y="128.28" width="437.075" height="252.256" filterUnits="userSpaceOnUse" color-interpolation-filters="sRGB">
<feFlood flood-opacity="0" result="BackgroundImageFix"/>
<feColorMatrix in="SourceAlpha" type="matrix" values="0 0 0 0 0 0 0 0 0 0 0 0 0 0 0 0 0 0 127 0" result="hardAlpha"/>
<feOffset dy="1"/>
<feComposite in2="hardAlpha" operator="out"/>
<feColorMatrix type="matrix" values="0 0 0 0 0 0 0 0 0 0 0 0 0 0 0 0 0 0 0.25 0"/>
<feBlend mode="normal" in2="BackgroundImageFix" result="effect1_dropShadow_14_405"/>
<feBlend mode="normal" in="SourceGraphic" in2="effect1_dropShadow_14_405" result="shape"/>
<feColorMatrix in="SourceAlpha" type="matrix" values="0 0 0 0 0 0 0 0 0 0 0 0 0 0 0 0 0 0 127 0" result="hardAlpha"/>
<feOffset dx="1" dy="1"/>
<feGaussianBlur stdDeviation="2"/>
<feComposite in2="hardAlpha" operator="arithmetic" k2="-1" k3="1"/>
<feColorMatrix type="matrix" values="0 0 0 0 0.995 0 0 0 0 0.75 0 0 0 0 1 0 0 0 0.25 0"/>
<feBlend mode="normal" in2="shape" result="effect2_innerShadow_14_405"/>
<feColorMatrix in="SourceAlpha" type="matrix" values="0 0 0 0 0 0 0 0 0 0 0 0 0 0 0 0 0 0 127 0" result="hardAlpha"/>
<feOffset dx="-1" dy="-1"/>
<feGaussianBlur stdDeviation="2"/>
<feComposite in2="hardAlpha" operator="arithmetic" k2="-1" k3="1"/>
<feColorMatrix type="matrix" values="0 0 0 0 0 0 0 0 0 0 0 0 0 0 0 0 0 0 0.25 0"/>
<feBlend mode="normal" in2="effect2_innerShadow_14_405" result="effect3_innerShadow_14_405"/>
</filter>
<clipPath id="clip0_14_405">
<rect width="1024" height="512" fill="white"/>
</clipPath>
</defs>
</svg>
