<svg width="1024" height="512" viewBox="0 0 1024 512" fill="none" xmlns="http://www.w3.org/2000/svg">
<rect width="1024" height="512" fill="white"/>
<path d="M133 88C133 81.3726 138.373 76 145 76H341C347.627 76 353 81.3726 353 88V436H133V88Z" stroke="black" stroke-width="12"/>
<path fill-rule="evenodd" clip-rule="evenodd" d="M243 409C291.601 409 331 369.601 331 321C331 272.399 291.601 233 243 233C194.399 233 155 272.399 155 321C155 369.601 194.399 409 243 409ZM243 372C271.167 372 294 349.167 294 321C294 292.833 271.167 270 243 270C214.833 270 192 292.833 192 321C192 349.167 214.833 372 243 372Z" fill="black"/>
<circle cx="243" cy="321" r="32" fill="black"/>
<path fill-rule="evenodd" clip-rule="evenodd" d="M243 259C282.765 259 315 226.765 315 187C315 147.235 282.765 115 243 115C203.235 115 171 147.235 171 187C171 226.765 203.235 259 243 259ZM243 227C265.091 227 283 209.091 283 187C283 164.909 265.091 147 243 147C220.909 147 203 164.909 203 187C203 209.091 220.909 227 243 227Z" fill="black"/>
<circle cx="243" cy="187" r="24" fill="black"/>
<circle cx="284" cy="396" r="9" fill="black" stroke="white" stroke-width="2"/>
<circle cx="203" cy="396" r="9" fill="black" stroke="white" stroke-width="2"/>
<circle cx="163" cy="280" r="9" transform="rotate(-90 163 280)" fill="black" stroke="white" stroke-width="2"/>
<circle cx="163" cy="361" r="9" transform="rotate(-90 163 361)" fill="black" stroke="white" stroke-width="2"/>
<circle cx="323" cy="280" r="9" transform="rotate(-90 323 280)" fill="black" stroke="white" stroke-width="2"/>
<circle cx="323" cy="361" r="9" transform="rotate(-90 323 361)" fill="black" stroke="white" stroke-width="2"/>
<circle cx="284" cy="243" r="9" fill="black" stroke="white" stroke-width="2"/>
<circle cx="203" cy="243" r="9" fill="black" stroke="white" stroke-width="2"/>
<path d="M493.808 224L459.504 134.4H477.04L512.368 224H493.808ZM423.024 224L458.352 134.4H475.888L441.584 224H423.024ZM439.664 204.288V188.8H495.856V204.288H439.664ZM547.039 225.536C539.956 225.536 534.58 223.787 530.911 220.288C527.327 216.789 525.535 211.797 525.535 205.312V140.032H542.431V201.6C542.431 204.331 543.028 206.421 544.223 207.872C545.418 209.237 547.167 209.92 549.471 209.92C550.324 209.92 551.263 209.749 552.287 209.408C553.311 208.981 554.378 208.384 555.487 207.616L561.375 220.288C559.327 221.824 557.023 223.061 554.463 224C551.988 225.024 549.514 225.536 547.039 225.536ZM515.167 174.336V160H558.431V174.336H515.167ZM601.126 225.536C594.641 225.536 588.838 224.128 583.718 221.312C578.683 218.411 574.715 214.443 571.814 209.408C568.998 204.373 567.59 198.571 567.59 192C567.59 185.429 568.998 179.627 571.814 174.592C574.63 169.557 578.555 165.632 583.59 162.816C588.625 159.915 594.385 158.464 600.87 158.464C607.441 158.464 613.243 159.915 618.278 162.816C623.313 165.632 627.238 169.557 630.054 174.592C632.87 179.627 634.278 185.429 634.278 192C634.278 198.571 632.87 204.373 630.054 209.408C627.238 214.443 623.313 218.411 618.278 221.312C613.329 224.128 607.611 225.536 601.126 225.536ZM601.126 209.92C604.283 209.92 607.057 209.152 609.446 207.616C611.835 206.08 613.67 203.989 614.95 201.344C616.315 198.613 616.998 195.499 616.998 192C616.998 188.501 616.315 185.429 614.95 182.784C613.585 180.053 611.665 177.92 609.19 176.384C606.801 174.848 604.027 174.08 600.87 174.08C597.798 174.08 595.025 174.848 592.55 176.384C590.161 177.92 588.283 180.053 586.918 182.784C585.553 185.429 584.87 188.501 584.87 192C584.87 195.499 585.553 198.613 586.918 201.344C588.283 203.989 590.203 206.08 592.678 207.616C595.153 209.152 597.969 209.92 601.126 209.92ZM645.421 224V160H661.293L662.061 168.32C664.024 165.077 666.541 162.645 669.613 161.024C672.685 159.317 676.098 158.464 679.853 158.464C685.058 158.464 689.41 159.573 692.909 161.792C696.493 164.011 699.096 167.424 700.717 172.032C702.594 167.68 705.24 164.352 708.653 162.048C712.066 159.659 716.034 158.464 720.557 158.464C728.066 158.464 733.784 160.853 737.709 165.632C741.634 170.325 743.597 177.579 743.597 187.392V224H726.701V191.232C726.701 186.88 726.232 183.509 725.293 181.12C724.354 178.731 723.074 177.024 721.453 176C719.832 174.891 717.912 174.336 715.693 174.336C711.597 174.251 708.44 175.573 706.221 178.304C704.002 181.035 702.893 185.088 702.893 190.464V224H685.997V191.232C685.997 186.88 685.528 183.509 684.589 181.12C683.736 178.731 682.456 177.024 680.749 176C679.128 174.891 677.208 174.336 674.989 174.336C670.893 174.251 667.736 175.573 665.517 178.304C663.384 181.035 662.317 185.088 662.317 190.464V224H645.421ZM758.07 224V160H774.966V224H758.07ZM766.518 149.632C763.958 149.632 761.697 148.693 759.734 146.816C757.771 144.853 756.79 142.549 756.79 139.904C756.79 137.259 757.771 134.997 759.734 133.12C761.697 131.157 763.958 130.176 766.518 130.176C769.163 130.176 771.425 131.157 773.302 133.12C775.265 134.997 776.246 137.259 776.246 139.904C776.246 142.549 775.265 144.853 773.302 146.816C771.425 148.693 769.163 149.632 766.518 149.632ZM821.394 225.536C814.738 225.536 808.807 224.128 803.602 221.312C798.397 218.411 794.343 214.443 791.442 209.408C788.541 204.288 787.09 198.485 787.09 192C787.09 185.429 788.541 179.627 791.442 174.592C794.343 169.557 798.354 165.632 803.474 162.816C808.594 159.915 814.482 158.464 821.138 158.464C827.538 158.464 833.383 160.043 838.674 163.2C843.965 166.357 847.805 170.923 850.194 176.896L834.322 182.528C833.127 180.053 831.25 178.091 828.69 176.64C826.215 175.104 823.442 174.336 820.37 174.336C817.213 174.336 814.439 175.104 812.05 176.64C809.661 178.091 807.783 180.139 806.418 182.784C805.053 185.429 804.37 188.501 804.37 192C804.37 195.499 805.053 198.571 806.418 201.216C807.783 203.776 809.703 205.824 812.178 207.36C814.653 208.896 817.469 209.664 820.626 209.664C823.698 209.664 826.471 208.853 828.946 207.232C831.506 205.611 833.383 203.477 834.578 200.832L850.578 206.464C848.103 212.523 844.221 217.216 838.93 220.544C833.725 223.872 827.879 225.536 821.394 225.536ZM461.808 379.536C457.285 379.536 453.061 378.981 449.136 377.872C445.211 376.763 441.712 375.227 438.64 373.264C435.568 371.216 433.008 368.955 430.96 366.48C428.997 364.005 427.717 361.403 427.12 358.672L444.272 353.552C445.381 356.453 447.344 358.971 450.16 361.104C452.976 363.152 456.517 364.219 460.784 364.304C465.307 364.389 468.976 363.408 471.792 361.36C474.693 359.312 476.144 356.667 476.144 353.424C476.144 350.608 474.992 348.261 472.688 346.384C470.469 344.421 467.397 342.928 463.472 341.904L451.824 338.832C447.472 337.723 443.632 336.059 440.304 333.84C436.976 331.536 434.373 328.72 432.496 325.392C430.619 322.064 429.68 318.181 429.68 313.744C429.68 305.296 432.453 298.725 438 294.032C443.632 289.253 451.568 286.864 461.808 286.864C467.525 286.864 472.517 287.717 476.784 289.424C481.136 291.045 484.763 293.392 487.664 296.464C490.565 299.536 492.784 303.163 494.32 307.344L477.296 312.592C476.272 309.691 474.395 307.216 471.664 305.168C468.933 303.12 465.477 302.096 461.296 302.096C457.029 302.096 453.659 303.077 451.184 305.04C448.795 307.003 447.6 309.776 447.6 313.36C447.6 316.176 448.539 318.395 450.416 320.016C452.379 321.637 455.024 322.875 458.352 323.728L470.128 326.672C477.808 328.549 483.781 331.92 488.048 336.784C492.315 341.648 494.448 347.067 494.448 353.04C494.448 358.331 493.168 362.981 490.608 366.992C488.048 370.917 484.336 373.989 479.472 376.208C474.608 378.427 468.72 379.536 461.808 379.536ZM533.414 379.536C526.331 379.536 520.955 377.787 517.286 374.288C513.702 370.789 511.91 365.797 511.91 359.312V294.032H528.806V355.6C528.806 358.331 529.403 360.421 530.598 361.872C531.793 363.237 533.542 363.92 535.846 363.92C536.699 363.92 537.638 363.749 538.662 363.408C539.686 362.981 540.753 362.384 541.862 361.616L547.75 374.288C545.702 375.824 543.398 377.061 540.838 378C538.363 379.024 535.889 379.536 533.414 379.536ZM501.542 328.336V314H544.806V328.336H501.542ZM600.786 378L599.762 366.224V314H616.658V378H600.786ZM557.394 346.768V314H574.29V346.768H557.394ZM574.29 346.768C574.29 351.035 574.759 354.405 575.698 356.88C576.722 359.269 578.13 361.019 579.922 362.128C581.799 363.152 583.89 363.664 586.194 363.664C590.631 363.749 594.002 362.427 596.306 359.696C598.61 356.88 599.762 352.827 599.762 347.536H605.522C605.522 354.363 604.498 360.165 602.45 364.944C600.402 369.637 597.586 373.264 594.002 375.824C590.418 378.299 586.194 379.536 581.33 379.536C576.21 379.536 571.858 378.512 568.274 376.464C564.69 374.416 561.959 371.259 560.082 366.992C558.29 362.64 557.394 357.051 557.394 350.224V346.768H574.29ZM676.864 378L675.968 366.096V288.4H692.864V378H676.864ZM656.768 379.536C650.88 379.536 645.76 378.171 641.408 375.44C637.141 372.709 633.813 368.827 631.424 363.792C629.035 358.757 627.84 352.827 627.84 346C627.84 339.088 629.035 333.157 631.424 328.208C633.813 323.173 637.141 319.291 641.408 316.56C645.76 313.829 650.88 312.464 656.768 312.464C662.144 312.464 666.667 313.829 670.336 316.56C674.091 319.291 676.949 323.173 678.912 328.208C680.875 333.157 681.856 339.088 681.856 346C681.856 352.827 680.875 358.757 678.912 363.792C676.949 368.827 674.091 372.709 670.336 375.44C666.667 378.171 662.144 379.536 656.768 379.536ZM661.12 364.048C664.021 364.048 666.581 363.28 668.8 361.744C671.104 360.208 672.896 358.075 674.176 355.344C675.456 352.613 676.096 349.499 676.096 346C676.096 342.501 675.456 339.387 674.176 336.656C672.896 333.925 671.104 331.835 668.8 330.384C666.581 328.848 663.979 328.08 660.992 328.08C657.92 328.08 655.232 328.848 652.928 330.384C650.624 331.835 648.789 333.925 647.424 336.656C646.059 339.387 645.376 342.501 645.376 346C645.376 349.499 646.059 352.613 647.424 355.344C648.789 358.075 650.624 360.208 652.928 361.744C655.317 363.28 658.048 364.048 661.12 364.048ZM708.445 378V314H725.341V378H708.445ZM716.893 303.632C714.333 303.632 712.072 302.693 710.109 300.816C708.146 298.853 707.165 296.549 707.165 293.904C707.165 291.259 708.146 288.997 710.109 287.12C712.072 285.157 714.333 284.176 716.893 284.176C719.538 284.176 721.8 285.157 723.677 287.12C725.64 288.997 726.621 291.259 726.621 293.904C726.621 296.549 725.64 298.853 723.677 300.816C721.8 302.693 719.538 303.632 716.893 303.632ZM771.001 379.536C764.516 379.536 758.713 378.128 753.593 375.312C748.558 372.411 744.59 368.443 741.689 363.408C738.873 358.373 737.465 352.571 737.465 346C737.465 339.429 738.873 333.627 741.689 328.592C744.505 323.557 748.43 319.632 753.465 316.816C758.5 313.915 764.26 312.464 770.745 312.464C777.316 312.464 783.118 313.915 788.153 316.816C793.188 319.632 797.113 323.557 799.929 328.592C802.745 333.627 804.153 339.429 804.153 346C804.153 352.571 802.745 358.373 799.929 363.408C797.113 368.443 793.188 372.411 788.153 375.312C783.204 378.128 777.486 379.536 771.001 379.536ZM771.001 363.92C774.158 363.92 776.932 363.152 779.321 361.616C781.71 360.08 783.545 357.989 784.825 355.344C786.19 352.613 786.873 349.499 786.873 346C786.873 342.501 786.19 339.429 784.825 336.784C783.46 334.053 781.54 331.92 779.065 330.384C776.676 328.848 773.902 328.08 770.745 328.08C767.673 328.08 764.9 328.848 762.425 330.384C760.036 331.92 758.158 334.053 756.793 336.784C755.428 339.429 754.745 342.501 754.745 346C754.745 349.499 755.428 352.613 756.793 355.344C758.158 357.989 760.078 360.08 762.553 361.616C765.028 363.152 767.844 363.92 771.001 363.92Z" fill="black"/>
</svg>
